<?xml version="1.0" encoding="utf-8"?>
<!-- Generator: Adobe Illustrator 16.0.0, SVG Export Plug-In . SVG Version: 6.00 Build 0)  -->
<!DOCTYPE svg PUBLIC "-//W3C//DTD SVG 1.1//EN" "http://www.w3.org/Graphics/SVG/1.1/DTD/svg11.dtd">
<svg version="1.1" id="Capa_1" xmlns="http://www.w3.org/2000/svg" xmlns:xlink="http://www.w3.org/1999/xlink" x="0px" y="0px"
	 width="1163px" height="457px" viewBox="-7.5 166.5 1163 457" enable-background="new -7.5 166.5 1163 457" xml:space="preserve">
<g>
	<path fill="#C6CF40" d="M126.187,218.874c0,0,0.122-1.099,0.244-3.298c0.244-2.199,0.611-5.375,1.222-9.406
		c0.733-4.153,1.588-9.162,3.787-15.147c0.611-1.466,1.222-2.932,2.199-4.52c0.978-1.466,2.077-3.176,4.275-4.397
		c1.1-0.611,2.565-0.855,4.031-0.611c1.344,0.244,2.565,0.855,3.542,1.466c1.955,1.344,3.298,3.054,4.52,4.764
		c2.443,3.42,4.275,7.329,6.107,11.36c1.833,4.031,3.42,8.307,5.009,12.826c1.466,4.52,2.932,9.162,4.397,14.048
		c0.733,2.443,1.344,5.008,2.077,7.451c0.611,2.565,1.222,5.131,1.955,7.696c2.565,10.505,5.252,21.744,7.94,33.593
		s5.253,24.309,7.94,37.38c5.375,26.141,10.628,54.481,16.369,84.287c1.466,7.452,2.932,14.903,4.642,22.477
		c1.71,7.452,3.542,15.025,6.107,21.988c0.611,1.71,1.344,3.421,2.077,4.887s1.588,2.932,2.321,3.908
		c0.366,0.489,0.733,0.855,0.977,0.978s0.366,0.244,0.244,0.122c-0.122,0-0.366-0.122-0.366,0c0,0,0.244-0.122,0.611-0.244
		c0.733-0.366,1.954-1.344,3.054-2.443c0.611-0.61,1.1-1.222,1.71-1.832l0.855-0.978l0.977-1.1c2.199-2.81,4.397-6.107,6.474-9.405
		c4.031-6.719,7.696-14.048,11.116-21.5c3.42-7.451,6.597-15.27,9.528-23.087c6.108-15.758,11.482-32.005,16.979-48.618
		c2.81-8.307,5.497-16.613,8.673-25.042c0.855-2.077,1.71-4.275,2.565-6.474c0.489-1.1,0.978-2.199,1.588-3.42
		c0.61-1.222,1.221-2.443,2.443-4.031l0.489-0.611c0.244-0.244,0.366-0.488,0.733-0.733c0.611-0.488,1.344-1.222,2.688-1.954
		c0.855-0.367,1.71-0.733,3.054-0.855c1.222-0.122,2.81,0,4.031,0.489s2.199,1.222,2.81,1.71c0.733,0.733,1.099,1.1,1.466,1.588
		c0.244,0.366,0.611,0.977,0.733,1.221c0.244,0.367,0.367,0.733,0.489,0.978c0.122,0.366,0.244,0.611,0.366,0.855
		s0.122,0.489,0.245,0.733c0.244,0.977,0.488,1.71,0.61,2.443c0.123,0.733,0.245,1.466,0.367,2.077l0.244,1.832l0.367,3.42
		c0.733,9.162,1.222,17.957,1.588,26.875c0.367,8.917,0.611,17.712,0.978,26.63c0.61,17.712,1.222,35.425,2.076,52.894
		c0.855,17.59,1.833,35.059,3.299,52.282c0.732,8.551,1.71,17.102,2.81,25.53c0.61,4.153,1.221,8.307,1.954,12.338
		s1.71,8.063,2.81,11.605c0.61,1.832,1.222,3.542,1.954,4.886c0.367,0.733,0.733,1.344,0.978,1.71s0.488,0.611,0.244,0.366
		c-0.122-0.122-0.366-0.244-0.854-0.366c-0.367-0.122-0.855-0.122-1.222,0c-0.733,0.122-0.733,0.244-0.489,0.122
		c0.489-0.366,1.589-1.588,2.565-2.932c1.955-2.81,3.665-6.229,5.131-9.895c1.588-3.664,2.932-7.451,4.275-11.238
		c5.253-15.27,9.528-31.027,13.682-46.419s8.063-30.539,11.727-45.32c3.787-14.78,7.452-29.073,11.116-42.999
		c3.665-13.926,7.452-27.241,11.116-40.067c3.787-12.826,7.452-25.042,11.482-36.524c4.031-11.483,8.063-22.354,12.582-32.372
		c2.321-5.008,4.643-9.772,7.208-14.292c2.564-4.52,5.374-8.673,8.673-12.338c1.71-1.832,3.542-3.542,5.619-4.886
		c2.076-1.344,4.52-2.321,7.085-2.565c2.565-0.245,5.008,0.366,7.085,1.466c2.076,1.099,3.665,2.565,5.131,4.031
		c2.81,3.054,4.764,6.23,6.474,9.284c1.71,3.054,3.054,6.107,4.153,8.917c2.321,5.619,3.909,10.506,5.253,14.415
		c1.222,4.031,2.076,7.085,2.688,9.162c0.61,2.077,0.854,3.176,0.854,3.176s-0.366-1.1-1.099-3.054
		c-0.733-2.076-1.833-5.008-3.299-8.917c-1.466-3.909-3.42-8.551-6.107-13.926c-1.344-2.688-2.81-5.497-4.642-8.429
		c-1.833-2.81-3.909-5.864-6.597-8.307c-2.565-2.443-5.985-4.397-9.528-3.909c-3.42,0.489-6.719,3.298-9.528,6.597
		c-2.81,3.42-5.252,7.451-7.451,11.849c-2.199,4.398-4.275,9.04-6.229,14.048c-3.909,9.895-7.452,20.766-10.872,32.249
		c-3.421,11.482-6.719,23.82-9.895,36.646c-3.177,12.827-6.353,26.264-9.528,40.189s-6.475,28.34-9.895,43.243
		c-3.421,14.903-6.841,30.173-10.628,45.687c-1.832,7.818-3.909,15.636-6.107,23.576c-2.199,7.94-4.397,16.002-7.085,24.064
		c-1.344,4.031-2.81,8.063-4.397,12.216c-0.855,2.076-1.711,4.153-2.81,6.229c-1.1,2.199-2.199,4.153-3.543,6.23
		c-1.466,2.076-2.932,4.275-5.741,6.474c-1.466,1.1-3.421,2.321-6.23,2.688c-1.344,0.245-2.932,0.122-4.397-0.122
		c-1.466-0.366-2.688-0.977-3.664-1.588c-2.077-1.344-3.177-2.688-4.275-4.031c-0.978-1.344-1.711-2.565-2.321-3.786
		c-1.222-2.443-2.077-4.643-2.81-6.963c-1.466-4.521-2.565-8.918-3.42-13.315s-1.588-8.795-2.321-13.192
		c-1.344-8.796-2.321-17.469-3.054-26.264c-3.298-35.059-4.52-70.606-5.863-106.031c-0.367-8.795-0.733-17.713-1.1-26.508
		c-0.366-8.795-0.733-17.59-1.466-26.142l-0.366-3.054l-0.123-1.466c-0.122-0.489-0.122-0.855-0.244-1.222
		c-0.122-0.366-0.122-0.733-0.122-0.733c0-0.122-0.122-0.122,0.489,0.733c0.244,0.367,0.366,0.489,0.977,0.978
		c0.367,0.366,1.222,0.977,2.199,1.344c0.978,0.366,2.199,0.488,3.176,0.366c0.977-0.122,1.71-0.366,2.199-0.611
		c0.855-0.488,1.222-0.855,1.344-0.977s0.122-0.122,0.122-0.122l0,0c-0.122,0.122-0.611,0.855-0.977,1.588
		c-0.367,0.733-0.855,1.588-1.222,2.565c-0.855,1.832-1.588,3.787-2.321,5.741c-3.054,7.94-5.742,16.247-8.551,24.553
		c-5.619,16.491-11.238,32.982-17.59,49.106s-13.07,32.005-22.354,46.908c-2.321,3.787-4.764,7.329-7.696,10.872l-0.977,1.222
		l-1.222,1.344c-0.733,0.854-1.588,1.71-2.443,2.565c-1.833,1.71-3.787,3.42-6.597,4.886c-1.466,0.733-3.176,1.344-5.13,1.71
		c-1.955,0.367-4.275,0.245-6.352-0.488c-2.077-0.61-3.665-1.71-5.009-2.81c-1.343-1.1-2.321-2.321-3.176-3.42
		c-1.71-2.199-2.81-4.398-3.787-6.475c-0.977-2.077-1.832-4.153-2.443-6.23c-2.81-8.184-4.642-16.002-6.23-23.82
		c-1.71-7.817-3.054-15.392-4.52-22.965c-2.81-15.025-5.131-29.684-7.452-43.732c-2.443-14.17-4.764-27.729-7.085-40.8
		c-2.321-13.071-4.764-25.531-7.085-37.379c-2.321-11.85-4.642-23.088-6.841-33.593c-0.611-2.687-1.1-5.252-1.71-7.818
		c-0.488-2.565-0.977-5.008-1.588-7.451c-1.099-4.887-2.077-9.528-3.298-14.048c-1.099-4.397-2.321-8.673-3.665-12.704
		c-1.344-3.909-2.81-7.574-4.52-10.627c-0.855-1.466-1.833-2.932-2.81-3.787c-0.489-0.367-0.978-0.733-1.344-0.855
		c-0.367-0.122-0.733-0.122-1.1,0c-0.977,0.245-1.955,1.344-2.81,2.443c-0.855,1.099-1.588,2.443-2.321,3.665
		c-1.344,2.565-2.321,5.131-3.176,7.452c-0.855,2.321-1.588,4.52-2.199,6.596c-1.222,3.909-1.955,7.085-2.443,9.162
		C126.431,217.775,126.187,218.874,126.187,218.874z"/>
</g>
<g>
	<text transform="matrix(0.7199 0 0 1 437.8857 452.46)" fill="#FFFFFF" font-family="'SegoeScript'" font-size="290.5848">meew</text>
</g>
<g>
	<path fill="#FFFFFF" d="M459.306,493.725c0,0-0.489,1.222-1.466,3.665c-0.978,2.32-2.443,5.863-4.398,10.383
		c-1.954,4.52-4.52,10.139-7.573,16.613c-3.054,6.474-6.841,13.926-11.36,21.988c-4.52,8.185-9.772,16.979-16.247,26.263
		c-3.176,4.643-6.718,9.284-10.871,13.926c-4.031,4.643-8.552,9.284-14.048,13.315c-2.688,2.076-5.742,3.909-9.162,5.497
		c-3.298,1.466-7.085,2.688-11.238,2.81c-4.031,0.244-8.307-0.611-12.094-2.443c-3.786-1.832-7.085-4.397-9.895-7.329
		c-1.466-1.466-2.688-3.054-3.909-4.52c-0.61-0.855-1.099-1.589-1.71-2.443l-0.855-1.222l-0.732-1.222
		c-0.488-0.855-0.978-1.71-1.588-2.565c-0.488-0.854-0.978-1.71-1.344-2.565c-0.978-1.71-1.832-3.542-2.565-5.374
		c-3.298-7.208-5.863-14.781-8.185-22.6c-1.222-3.908-2.198-7.817-3.176-11.849c-0.978-3.909-1.955-7.94-2.932-11.972
		c-1.955-8.062-3.787-16.368-5.497-24.797c-3.543-16.857-6.475-34.326-9.284-52.405s-5.13-36.646-7.329-55.703
		c-2.199-19.056-3.909-38.479-5.863-58.146c-0.978-9.772-1.955-19.667-3.42-29.195c-0.367-2.321-0.733-4.764-1.222-6.962
		c-0.489-2.199-0.978-4.398-1.588-6.23c-0.123-0.489-0.245-0.855-0.489-1.222c-0.122-0.122-0.122-0.367-0.244-0.489
		c-0.123-0.122-0.123-0.244-0.245-0.366c-0.122-0.123-0.122-0.123-0.122-0.245c0,0-0.122-0.122,0,0c0,0,0,0.122,0.122,0.122
		c0,0,0.122,0,0.122,0.123c0.123,0.122,0.245,0.244,0.367,0.244c0.122,0.122,0.244,0.122,0.489,0.366
		c0.244,0.123,0.488,0.245,0.733,0.367c0.244,0.122,0.488,0.122,0.855,0.244c0.611,0.123,1.222,0.123,1.71,0.245
		c0.245,0,0.489,0,0.855-0.122c0.244,0,0.366,0,0.488-0.123c0.122,0,0.367-0.122,0.489-0.244c0.122,0,0.122,0,0.244,0
		c0.367-0.244,0.122,0,0.122,0c-0.122,0.122-0.122,0.244-0.244,0.244c-0.122,0.123-0.244,0.123-0.366,0.367
		c-0.978,1.099-2.321,2.932-3.42,4.764l-0.978,1.588c-0.366,0.611-0.611,1.099-0.855,1.588c-0.611,0.978-1.1,2.077-1.71,3.054
		c-2.321,4.275-4.52,8.673-6.475,13.192c-4.153,9.04-7.94,18.568-11.604,28.096c-3.665,9.65-7.085,19.422-10.627,29.195
		c-3.42,9.895-6.963,19.789-10.628,29.807c-1.832,5.008-3.665,10.017-5.741,15.024c-0.977,2.565-2.077,5.131-3.298,7.696
		c-1.221,2.565-2.443,5.131-4.153,8.063c-0.855,1.466-1.832,2.932-3.542,4.764c-0.122,0.244-0.488,0.488-0.733,0.733l-0.855,0.732
		c-0.244,0.244-0.733,0.611-1.099,0.855c-0.489,0.366-0.733,0.488-1.344,0.854c-0.611,0.367-1.344,0.611-1.955,0.855
		s-1.833,0.488-2.688,0.61c-1.833,0.245-4.52-0.244-5.986-1.099c-0.733-0.367-1.832-0.978-2.199-1.466
		c-0.488-0.489-0.977-0.978-1.466-1.467c-0.489-0.488-0.611-0.854-0.977-1.221c-0.245-0.367-0.611-0.855-0.733-1.222
		c-0.367-0.611-0.611-1.222-0.978-1.833l-0.611-1.588c-0.244-0.488-0.244-0.977-0.488-1.466l-0.245-0.732l-0.122-0.611l-0.488-2.076
		c-0.733-2.932-1.222-5.497-1.71-8.185l-1.466-7.94c-3.787-20.889-7.452-41.533-11.482-62.055c-4.153-20.4-8.551-40.8-14.537-59.979
		c-1.466-4.764-3.176-9.406-5.008-13.926c-0.855-2.199-1.833-4.397-2.932-6.352c-0.977-2.077-2.077-3.909-3.176-5.497
		c-1.1-1.588-2.321-2.932-2.932-3.298c-0.123,0-0.245-0.244-0.245-0.122l0,0h0.123c0,0,0.122,0,0.244,0s0.244,0,0.244,0
		c0.122,0.122,0.367-0.122,0.367,0c0,0,0,0,0.122-0.122c0,0,0,0.122-0.122,0.122c0,0-0.122,0-0.122,0.122
		c-0.123,0.122-0.123,0.122-0.245,0.244c-0.122,0.123-0.366,0.367-0.611,0.611l-0.366,0.367l-0.367,0.489
		c-0.488,0.611-1.099,1.466-1.71,2.199c-0.489,0.855-1.1,1.71-1.588,2.565c-2.077,3.665-3.787,8.062-5.497,12.582
		c-1.588,4.52-3.054,9.162-4.52,13.925c-2.81,9.406-5.252,18.934-7.574,28.462c-4.642,19.056-8.673,38.113-12.826,56.68
		c-4.153,18.568-8.062,36.891-12.215,54.604c-4.153,17.712-8.307,34.937-13.071,51.55c-2.443,8.307-4.886,16.368-7.696,24.309
		s-5.741,15.636-9.528,23.088c-1.955,3.664-4.031,7.329-6.596,10.871c-1.344,1.711-2.81,3.421-4.52,5.009
		c-1.832,1.588-3.909,3.054-6.596,4.031c-2.688,0.977-6.108,0.977-8.795,0.122c-2.688-0.855-4.764-2.321-6.596-3.909
		c-3.42-3.054-5.619-6.475-7.574-9.895c-3.787-6.719-6.474-13.438-8.795-20.033c-2.321-6.597-4.275-13.071-5.985-19.301
		c-6.841-24.92-11.849-46.908-15.514-64.987c-3.787-18.201-5.986-32.493-7.452-42.388c-0.733-4.886-1.222-8.673-1.466-11.238
		c-0.245-2.565-0.489-3.909-0.489-3.909s0.978,5.253,3.054,14.903c2.077,9.65,5.375,23.82,10.139,41.655
		c4.642,17.834,10.994,39.334,18.934,63.765c1.955,6.108,4.153,12.216,6.719,18.445c2.565,6.23,5.375,12.46,9.04,18.079
		c1.832,2.81,3.909,5.497,5.985,7.208c1.1,0.854,2.199,1.466,3.054,1.71c0.855,0.244,1.466,0.122,2.321-0.122
		c1.71-0.611,4.031-2.932,5.986-5.741c1.954-2.81,3.665-5.986,5.252-9.406c3.176-6.841,5.741-14.292,8.185-21.988
		c2.443-7.695,4.52-15.758,6.596-23.942c4.031-16.369,7.818-33.593,11.483-51.306c7.329-35.425,13.803-73.171,22.477-112.139
		c2.199-9.772,4.52-19.545,7.329-29.439c1.344-5.008,2.932-9.895,4.642-15.025c1.71-5.008,3.665-10.139,6.474-15.392
		c0.733-1.344,1.466-2.565,2.321-3.909c0.855-1.344,1.71-2.565,2.932-3.909l0.855-0.977l0.977-0.978
		c0.611-0.611,1.344-1.344,2.199-1.955l1.221-0.977c0.367-0.366,0.978-0.611,1.466-0.977c0.489-0.245,0.978-0.611,1.588-0.855
		c0.611-0.244,1.221-0.488,1.832-0.733c1.222-0.488,2.688-0.61,4.153-0.855c0.733,0,1.466,0,2.199,0s1.466,0.122,2.077,0.245
		c0.733,0.122,1.344,0.366,2.077,0.488c0.611,0.244,1.222,0.489,1.833,0.733c1.222,0.489,2.077,1.1,3.054,1.71
		c3.665,2.565,5.741,5.252,7.574,7.818c1.833,2.565,3.298,5.252,4.642,7.818s2.443,5.13,3.542,7.696
		c2.199,5.13,3.909,10.261,5.619,15.392c3.298,10.261,6.108,20.522,8.551,30.783c2.565,10.261,4.764,20.645,6.841,31.028
		c4.275,20.766,7.94,41.655,11.727,62.299l1.466,7.696c0.488,2.443,0.977,5.131,1.588,7.329l0.489,1.832
		c0,0.123,0.122,0.489,0.122,0.367l0.122,0.244c0,0.122,0.122,0.366,0.122,0.488s0.123,0.122,0.123,0.244c0,0,0-0.122-0.123-0.122
		c0-0.122-0.122-0.244-0.244-0.366s-0.122-0.122-0.367-0.488c-0.244-0.245-0.488-0.489-0.733-0.733
		c-0.244-0.122-0.855-0.732-1.466-0.854c-0.488-0.245-1.221-0.489-1.955-0.611c-0.733-0.122-1.588-0.122-2.199-0.122
		s-1.466,0.244-1.71,0.366c-0.367,0.122-0.733,0.244-1.1,0.489c-0.366,0.244-0.366,0.244-0.611,0.366
		c-0.122,0.122-0.366,0.244-0.366,0.244s-0.122,0-0.122,0.122c0,0-0.122,0.122,0,0s0.611-0.854,1.099-1.588
		c0.978-1.71,2.077-3.787,3.054-5.985c0.977-2.199,1.954-4.521,2.932-6.841c1.955-4.643,3.787-9.528,5.619-14.414
		c7.207-19.545,14.048-39.457,21.622-59.124c3.787-9.772,7.818-19.545,12.338-29.195c2.321-4.764,4.642-9.528,7.329-14.292
		c0.733-1.222,1.344-2.321,2.077-3.542c0.367-0.611,0.733-1.222,1.1-1.71l1.099-1.71c1.588-2.443,3.176-4.886,5.741-7.451
		c0.245-0.367,0.611-0.611,0.978-0.978l1.099-0.977c0.978-0.733,1.833-1.466,3.298-2.199c0.367-0.123,0.611-0.367,0.977-0.489
		c0.489-0.122,0.855-0.367,1.344-0.489c0.489-0.122,0.978-0.244,1.466-0.366c0.611-0.123,1.222-0.123,1.71-0.123
		c0.611,0,1.099,0,1.833,0c0.61,0.123,1.221,0.245,1.832,0.367s1.222,0.366,1.71,0.611c0.488,0.244,0.977,0.489,1.466,0.733
		c0.488,0.244,0.855,0.611,1.221,0.855c0.367,0.244,0.733,0.611,1.1,0.855c0.366,0.367,0.611,0.611,0.855,0.855l0.733,0.855
		c0.489,0.611,0.733,1.099,1.1,1.588c0.366,0.489,0.611,0.977,0.855,1.466l0.611,1.344c0.244,0.489,0.366,0.855,0.488,1.222
		c0.367,0.855,0.611,1.588,0.855,2.321c0.978,3.054,1.588,5.741,2.076,8.429c0.489,2.688,0.855,5.253,1.222,7.94
		c1.344,10.383,2.199,20.4,2.932,30.294c1.589,19.789,2.932,39.212,4.521,58.024c1.588,18.935,3.542,37.38,5.741,55.215
		c2.198,17.956,4.886,35.303,7.695,52.038c1.466,8.307,2.932,16.613,4.52,24.553c0.733,4.031,1.589,7.94,2.443,11.972
		c0.855,3.787,1.71,7.695,2.688,11.482c1.955,7.451,4.153,14.659,6.841,21.377c0.733,1.711,1.344,3.299,2.199,4.887
		c0.366,0.732,0.732,1.588,1.099,2.321c0.367,0.732,0.855,1.466,1.222,2.32l0.611,1.1l0.732,1.1
		c0.489,0.732,0.855,1.466,1.344,2.076c0.978,1.344,1.955,2.688,3.054,3.787c2.077,2.443,4.398,4.397,6.963,5.741
		c2.565,1.344,5.131,1.955,7.94,1.955c5.619,0,11.238-2.688,16.247-5.986c5.008-3.42,9.528-7.451,13.559-11.727
		c4.031-4.275,7.696-8.551,11.116-12.948c6.841-8.674,12.46-17.103,17.347-24.92c9.772-15.636,16.613-28.341,21.255-37.136
		C457.106,498.488,459.306,493.725,459.306,493.725z"/>
</g>
</svg>
